<svg xmlns="http://www.w3.org/2000/svg" xmlns:xlink="http://www.w3.org/1999/xlink">
  <defs/>
  <g>
    <path stroke="none" fill="#5DA8DC" fill-opacity="0.996078431372549" d="M40.9 40.95 Q33.95 48 24 48 14 48 6.95 40.95 0 33.95 0 24 0 14.05 6.95 6.95 14 0 24 0 33.95 0 40.9 6.95 48 14.05 48 24 48 33.95 40.9 40.95"/>
    <path stroke="none" fill="#FFFFFF" fill-opacity="0.996078431372549" d="M41.5 13.3 L41.1 13.8 38.05 16.85 38.05 18.45 38.05 18.5 38 18.5 38 18.8 38 18.85 37.85 20.3 Q37.5 23 36.6 25.2 35.75 27.4 34.55 29.25 L31.8 32.65 28.4 35.3 Q26.45 36.5 24.2 37.25 21.85 38 18.95 38.25 L18.65 38.25 18.35 38.25 18.3 38.25 18.1 38.25 16.9 38.25 16.7 38.25 16.35 38.25 16.1 38.25 15.6 38.2 Q12.85 37.95 10.55 37.1 8.35 36.25 6.5 35.05 L7.3 35.1 7.35 35.1 7.7 35.15 8.6 35.15 8.65 35.15 9 35.15 9 35.1 Q11.9 34.9 14 34 L17 32 16.9 32 16.7 32 Q14.4 31.8 12.95 30.7 11.2 29.35 10.4 27.1 L11.2 27.15 11.25 27.15 11.5 27.2 11.55 27.2 11.9 27.2 11.95 27.2 12.3 27.15 13.65 26.95 13.15 26.8 Q10.75 26.1 9.4 24.4 8 22.75 7.9 19.8 9.1 20.5 10.8 20.65 L10.85 20.65 11.05 20.6 9.6 19.35 Q8.1 17.75 7.9 14.95 L7.9 14.9 7.9 14.5 7.9 14.45 7.9 14.15 Q8.1 12.35 8.85 11.15 L8.9 11.1 11.95 14.1 Q13.7 15.5 15.75 16.5 17.8 17.55 20.25 18.1 L23.75 18.6 Q23.5 17.75 23.55 16.65 L23.55 16.6 23.6 16.4 23.6 16.35 23.6 16.2 Q24 13.55 25.5 11.95 L25.8 11.65 Q27.25 10.35 29.55 9.9 L30.2 9.8 30.5 9.8 30.5 9.75 31.1 9.75 31.15 9.75 31.35 9.8 31.4 9.8 Q34.1 10.15 35.65 11.65 L36.1 12.05 Q38.6 11.5 40.5 10.35 L40.6 10.35 Q39.9 12.55 38.1 13.9 L37.5 14.25 Q39.7 14 41.5 13.2 L41.5 13.3"/>
  </g>
</svg>