<svg xmlns="http://www.w3.org/2000/svg" xmlns:xlink="http://www.w3.org/1999/xlink">
  <defs/>
  <g>
    <path stroke="none" fill="#D31727" d="M40.9 40.95 Q33.95 48 24 48 14 48 6.95 40.95 L6.65 40.65 Q0 33.75 0 24 0 14.25 6.65 7.25 L6.95 6.95 Q14 0 24 0 33.95 0 40.9 6.95 48 14.05 48 24 48 33.95 40.9 40.95"/>
    <path stroke="none" fill="#FEFEFE" d="M20.5 19.1 L20.45 19.1 Q20.3 23.75 20.55 28 L20.55 28.8 20.65 28.8 29.85 24 29.8 23.95 20.5 19.1 M41.4 17.4 L41.4 28.6 41.35 28.6 41.35 29.1 41.35 29.2 41.35 29.25 Q41.55 35.25 36.3 35.9 L36.25 35.9 35.7 35.9 35.7 36 35.65 36 35.2 36 35.1 36 34.35 36 34.35 36.05 34.25 36.05 33.65 36.05 33.55 36.05 32.65 36.05 32.65 36.1 15.45 36.1 14.4 36.05 14.3 36.05 13.7 36.05 12.85 36 12.8 36 Q6.8 35.85 6.65 29.8 L6.65 29.2 6.7 29.1 6.65 28.7 6.65 17.55 Q7.1 12.75 11.65 12.1 L11.7 12.1 12.3 12.05 12.35 12 12.8 12 12.85 12 13.7 11.95 14.3 11.95 14.4 11.95 15.45 11.9 32.75 11.9 33.55 11.95 33.65 11.95 34.25 11.95 34.35 11.95 35.1 12 35.2 12 35.65 12 35.7 12 36.25 12.1 36.3 12.1 Q40.85 12.75 41.4 17.4"/>
  </g>
</svg>